<?xml version="1.0" standalone="no"?>
<!DOCTYPE svg PUBLIC "-//W3C//DTD SVG 20010904//EN"
 "http://www.w3.org/TR/2001/REC-SVG-20010904/DTD/svg10.dtd">
<svg version="1.0" xmlns="http://www.w3.org/2000/svg"
 width="625.000000pt" height="687.000000pt" viewBox="0 0 625.000000 687.000000"
 preserveAspectRatio="xMidYMid meet">

<g transform="translate(0.000000,687.000000) scale(0.100000,-0.100000)"
fill="#000000" stroke="none">
<path d="M3992 6827 c-10 -33 -11 -59 -2 -112 6 -37 7 -71 3 -75 -4 -4 -66
-26 -138 -49 -183 -61 -329 -126 -560 -248 -515 -274 -896 -513 -1064 -669
-54 -50 -69 -57 -151 -79 -120 -33 -160 -54 -194 -107 -17 -25 -17 -32 -1
-134 14 -90 15 -120 6 -178 -18 -111 -80 -280 -196 -541 -511 -1147 -1002
-2438 -1533 -4027 l-166 -496 27 -41 c40 -60 75 -74 163 -66 40 3 79 12 88 18
8 7 144 415 310 932 286 896 302 942 609 1755 255 678 337 882 432 1085 284
605 388 842 430 980 77 255 218 488 413 682 83 82 280 235 483 376 223 155
509 306 774 410 127 50 336 120 340 114 1 -1 19 -63 39 -137 54 -191 148 -496
264 -850 55 -168 113 -355 129 -416 l30 -111 -295 -164 c-163 -90 -368 -207
-456 -259 -89 -53 -188 -107 -221 -120 -332 -132 -804 -352 -1020 -475 -371
-211 -565 -392 -565 -529 0 -19 5 -57 12 -85 l11 -51 51 0 c49 1 53 3 86 46
79 103 272 262 446 367 50 30 358 189 685 352 605 303 1017 515 1213 624 60
34 111 59 114 57 8 -9 183 -693 266 -1046 169 -709 258 -1175 285 -1495 14
-155 14 -504 1 -636 -34 -343 -177 -545 -435 -615 -92 -25 -376 -30 -551 -10
-469 54 -906 253 -1358 616 l-138 111 -71 -11 c-167 -26 -212 -81 -149 -181
36 -55 87 -100 221 -191 566 -386 1144 -578 1739 -578 187 -1 288 14 414 60
297 109 511 396 593 802 15 71 17 123 12 358 -5 272 -13 358 -57 614 -72 422
-250 1191 -475 2044 -42 161 -75 295 -73 296 1 1 73 45 158 96 691 416 1106
809 1234 1169 34 96 55 250 38 293 -49 130 -177 287 -298 367 -166 109 -332
137 -742 127 -374 -9 -652 -36 -899 -86 -53 -11 -97 -20 -98 -20 -2 0 -13 29
-25 64 -17 52 -27 66 -50 76 -16 7 -35 18 -41 26 -6 8 -28 14 -48 14 -35 0
-37 -2 -49 -43z m1683 -325 c202 -45 305 -129 305 -250 0 -53 -48 -184 -96
-265 -130 -215 -374 -460 -719 -719 -120 -90 -415 -292 -419 -287 -2 2 -43
148 -90 324 -56 206 -136 460 -223 713 -74 217 -132 396 -129 399 17 17 366
74 566 93 191 17 206 18 465 15 204 -3 266 -7 340 -23z"/>
</g>
</svg>
